
        <svg xmlns="http://www.w3.org/2000/svg" xmlns:xlink="http://www.w3.org/1999/xlink" version="1.1" width="3200" height="2371.800003051758" viewBox="0 0 3200 2371.800003051758">
			
			<g transform="scale(10) translate(10, 10)">
				<defs id="SvgjsDefs1333"/><g id="SvgjsG1334" featureKey="symbolFeature-0" transform="matrix(1.244744200755268,0,0,1.244744200755268,88.13878348932363,-27.478258619273344)" fill="#3160a7"><path xmlns="http://www.w3.org/2000/svg" class="st0" d="M49.6,44.9C39.4,44.9,31,53.2,31,63.5s8.4,18.6,18.6,18.6s18.6-8.4,18.6-18.6S59.9,44.9,49.6,44.9z M33.5,64.7  h5.3c0.1,2.3,0.4,4.5,0.9,6.5h-4.3C34.3,69.3,33.6,67.1,33.5,64.7z M50.8,53.4v-5.9c2.2,0.6,4.1,2.8,5.4,5.9H50.8z M57.1,55.8  c0.6,2,0.9,4.2,1,6.5h-7.3v-6.5H57.1z M48.4,47.5v5.9H43C44.4,50.3,46.3,48.1,48.4,47.5z M48.4,55.8v6.5h-7.3c0.1-2.3,0.5-4.6,1-6.5  H48.4z M38.8,62.3h-5.3c0.2-2.3,0.8-4.6,1.9-6.5h4.3C39.2,57.8,38.9,60,38.8,62.3z M41.2,64.7h7.3v6.5h-6.3  C41.6,69.3,41.3,67.1,41.2,64.7z M48.4,73.6v6c-2.2-0.6-4.1-2.8-5.4-6H48.4z M50.8,79.6v-6h5.4C54.9,76.8,53,79,50.8,79.6z   M50.8,71.3v-6.5h7.3c-0.1,2.3-0.5,4.6-1,6.5H50.8z M60.5,64.7h5.3c-0.2,2.3-0.8,4.6-1.9,6.5h-4.3C60.1,69.3,60.4,67.1,60.5,64.7z   M60.5,62.3c-0.1-2.3-0.4-4.5-0.9-6.5h4.3c1.1,2,1.7,4.2,1.9,6.5H60.5z M62.3,53.4h-3.5c-0.7-1.8-1.5-3.4-2.5-4.7  C58.7,49.8,60.7,51.4,62.3,53.4z M42.9,48.7c-1,1.3-1.8,2.9-2.5,4.7h-3.5C38.5,51.4,40.6,49.8,42.9,48.7z M36.9,73.6h3.5  c0.7,1.8,1.5,3.4,2.5,4.7C40.6,77.3,38.5,75.6,36.9,73.6z M56.3,78.3c1-1.3,1.8-2.9,2.5-4.7h3.5C60.7,75.6,58.7,77.3,56.3,78.3z" style="fill: #ffffff;"/><path xmlns="http://www.w3.org/2000/svg" d="M81.7,44.1c-0.6-0.2-0.8-0.5-1-1.1c-1.3-6.2-7.2-10.4-13.5-9.7c-0.6,0.1-1.3,0.2-1.9,0.3c-3.2-6.9-8.5-11.2-16.1-11.5  c-9-0.4-15.1,4.1-18.6,12.3c-9-1.4-16,3.4-19.2,9.7C8.5,50,9,57,12.7,62.3h0l1.7,2.4h14.5v-2.4H15.6c-4.1-4.8-5-11.5-2.1-17.2  c1.7-3.4,4.4-5.9,7.9-7.5c3.5-1.5,7.2-1.6,10.9-0.6c2.3-7.7,7.2-12.2,15.3-12.9c3.8-0.3,7.3,0.9,10.4,3.2c3.1,2.3,5,5.3,6,8.9  c1.5-0.3,3-0.7,4.4-0.8c4.9-0.4,9.8,3.6,10.3,8.5c0.1,1.2,0.5,1.7,1.7,2.1c4.9,1.4,7.9,6.5,7,11.4c-0.4,1.9-1.2,3.6-2.4,5l-7.8-0.1  l0.8-1.9l-7.3,3.1l7.3,3.1l-0.8-1.9h9.3c0,0,2.8-3.4,3.3-7.9C90.4,51.3,86.9,46.1,81.7,44.1z"/></g><g id="SvgjsG1335" featureKey="nameFeature-0" transform="matrix(3.322995171205035,0,0,3.322995171205035,-1.9937983703450803,53.13026274424965)" fill="#3160a7"><path d="M11.64 40 l-2.12 0 l0 -25.44 l-8.92 0 l0 -1.96 l19.96 0 l0 1.96 l-8.92 0 l0 25.44 z M32.480000000000004 19.68 c5.8 0 10.28 4.48 10.28 10.28 c0 5.84 -4.48 10.32 -10.28 10.32 c-5.84 0 -10.32 -4.48 -10.32 -10.32 c0 -5.8 4.48 -10.28 10.32 -10.28 z M32.480000000000004 21.56 c-4.8 0 -8.36 3.68 -8.36 8.44 c0 4.72 3.56 8.4 8.36 8.4 c4.76 0 8.32 -3.68 8.32 -8.4 c0 -4.76 -3.56 -8.44 -8.32 -8.44 z M45.760000000000005 40 l0 -27.4 l8.44 0 c7.64 0 13.88 5.76 13.88 13.68 s-6.24 13.72 -13.88 13.72 l-8.44 0 z M54.120000000000005 14.559999999999999 l-6.24 0 l0 23.48 l6.24 0 c6.64 0 11.84 -5 11.84 -11.76 s-5.2 -11.72 -11.84 -11.72 z M80.6 19.68 c5.8 0 10.28 4.48 10.28 10.28 c0 5.84 -4.48 10.32 -10.28 10.32 c-5.84 0 -10.32 -4.48 -10.32 -10.32 c0 -5.8 4.48 -10.28 10.32 -10.28 z M80.6 21.56 c-4.8 0 -8.36 3.68 -8.36 8.44 c0 4.72 3.56 8.4 8.36 8.4 c4.76 0 8.32 -3.68 8.32 -8.4 c0 -4.76 -3.56 -8.44 -8.32 -8.44 z"/></g><g id="SvgjsG1336" featureKey="sloganFeature-0" transform="matrix(1,0,0,1,60.79999911785126,197.09999990463257)" fill="#3160a7"><path d="M2.86 5 c0.2 0 0.44 0.14 0.54 0.32 l4.98 9.12 l5 -9.12 c0.1 -0.18 0.34 -0.32 0.54 -0.32 l1.4 0 c0.14 0 0.26 0.1 0.26 0.26 l0 14.72 l-1.62 0 c-0.14 0 -0.26 -0.12 -0.26 -0.26 l0 -11.68 l-4.18 7.94 c-0.08 0.14 -0.24 0.24 -0.4 0.24 l-1.46 0 c-0.16 0 -0.32 -0.1 -0.4 -0.24 l-4.18 -7.94 l0 11.68 c0 0.14 -0.12 0.26 -0.26 0.26 l-1.62 0 l0 -14.72 c0 -0.16 0.12 -0.26 0.26 -0.26 l1.4 0 z M26.16 5.119999999999999 l5.24 14.88 l-1.64 0 c-0.18 0 -0.32 -0.12 -0.36 -0.26 l-1.34 -3.86 l-7.64 0 l-1.34 3.86 c-0.04 0.14 -0.2 0.26 -0.36 0.26 l-1.64 0 l4.88 -13.9 c0.24 -0.66 0.86 -1.12 1.58 -1.12 l2.38 0 c0.1 0 0.2 0.06 0.24 0.14 z M21.02 14.16 l6.44 0 l-2.6 -7.46 l-0.98 0 c-0.16 0 -0.3 0.1 -0.36 0.26 z M41.68 12.940000000000001 l3.14 7.06 l-1.8 0 c-0.14 0 -0.32 -0.12 -0.38 -0.24 l-2.84 -6.42 l-4.56 0 c-0.2 0 -0.38 0.18 -0.38 0.38 l0 6.02 c0 0.14 -0.12 0.26 -0.26 0.26 l-1.62 0 l0 -14.76 c0 -0.14 0.12 -0.26 0.26 -0.26 l1.62 0 l0 7.06 c0.2 -0.24 0.58 -0.42 1 -0.42 l4.22 0 c0.84 0 1.52 -0.68 1.52 -1.52 l0 -4.86 c0 -0.14 0.12 -0.26 0.28 -0.26 l1.62 0 l0 4.96 c0 1.3 -0.74 2.44 -1.82 3 z M49.74 6.699999999999999 c-0.84 0 -1.52 0.68 -1.52 1.52 l0 3.8 c0.2 -0.24 0.56 -0.4 0.98 -0.4 l6.58 0 l0 1.46 c0 0.14 -0.12 0.26 -0.26 0.26 l-7.3 0 l0 3.42 c0 0.84 0.68 1.52 1.52 1.52 l6.48 0 c0.14 0 0.26 0.12 0.26 0.26 l0 1.46 l-6.74 0 c-1.88 0 -3.4 -1.52 -3.4 -3.4 l0 -8.22 c0 -1.88 1.52 -3.4 3.4 -3.4 l6.74 0 l0 1.46 c0 0.14 -0.12 0.26 -0.26 0.26 l-6.48 0 z M76.14 4.98 l1.76 0 l-3.06 7.78 c-0.22 0.6 -0.7 1.14 -1.48 1.14 l-0.9 0 l0 5.84 c0 0.14 -0.12 0.26 -0.26 0.26 l-1.64 0 l0 -6.1 l-0.8 -0.02 c-0.86 0 -1.36 -0.52 -1.58 -1.12 l-3.06 -7.78 l1.76 0 c0.14 0 0.3 0.12 0.36 0.24 l2.5 6.54 c0.08 0.2 0.32 0.36 0.52 0.36 l2.5 0 c0.2 0 0.44 -0.16 0.52 -0.36 l2.5 -6.54 c0.06 -0.12 0.22 -0.24 0.36 -0.24 z M87.42 20.08 l-4.52 0 c-1.88 0 -3.4 -1.52 -3.4 -3.4 l0 -8.38 c0 -1.88 1.52 -3.4 3.4 -3.4 l4.52 0 c1.86 0 3.4 1.52 3.4 3.4 l0 8.38 c0 1.88 -1.54 3.4 -3.4 3.4 z M82.9 6.619999999999999 c-0.84 0 -1.52 0.68 -1.52 1.52 l0 8.7 c0 0.84 0.68 1.52 1.52 1.52 l4.52 0 c0.84 0 1.52 -0.68 1.52 -1.52 l0 -8.7 c0 -0.84 -0.68 -1.52 -1.52 -1.52 l-4.52 0 z M96.64000000000001 20.08 c-1.88 0 -3.4 -1.52 -3.4 -3.4 l0 -11.7 l1.62 0 c0.14 0 0.26 0.12 0.26 0.26 l0 11.6 c0 0.84 0.68 1.52 1.52 1.52 l4.52 0 c0.84 0 1.52 -0.68 1.52 -1.52 l0 -11.6 c0 -0.14 0.12 -0.26 0.26 -0.26 l1.62 0 l0 11.7 c0 1.88 -1.54 3.4 -3.4 3.4 l-4.52 0 z M108.92000000000002 12.8 l-0.04 0 l0 6.94 c0 0.14 -0.12 0.26 -0.26 0.26 l-1.62 0 l0 -13.86 c0 -0.64 0.52 -1.16 1.16 -1.16 l6.28 0 c1.88 0 3.4 1.18 3.4 3.22 l0 1.94 c0 1.76 -1.26 2.72 -2.72 3.1 l3.2 6.76 l-1.74 0 c-0.14 0 -0.3 -0.12 -0.36 -0.24 l-3.04 -6.42 l-2.56 0 l-0.58 0 c-0.56 0 -0.98 -0.16 -1.12 -0.54 z M109.26 11.62 l5.18 0 c0.84 0 1.52 -0.68 1.52 -1.52 l0 -1.88 c0 -0.84 -0.68 -1.52 -1.52 -1.52 l-5.18 0 c-0.22 0 -0.38 0.18 -0.38 0.38 l0 4.16 c0 0.22 0.18 0.38 0.38 0.38 z M126.92000000000002 4.98 l10.64 0 l0 1.46 c0 0.14 -0.12 0.26 -0.26 0.26 l-4.28 0 l0 13.04 c0 0.14 -0.1 0.26 -0.26 0.26 l-1.62 0 l0 -13.3 l-4.48 0 l0 -1.46 c0 -0.14 0.12 -0.26 0.26 -0.26 z M147 20.08 l-4.52 0 c-1.88 0 -3.4 -1.52 -3.4 -3.4 l0 -8.38 c0 -1.88 1.52 -3.4 3.4 -3.4 l4.52 0 c1.86 0 3.4 1.52 3.4 3.4 l0 8.38 c0 1.88 -1.54 3.4 -3.4 3.4 z M142.48000000000002 6.619999999999999 c-0.84 0 -1.52 0.68 -1.52 1.52 l0 8.7 c0 0.84 0.68 1.52 1.52 1.52 l4.52 0 c0.84 0 1.52 -0.68 1.52 -1.52 l0 -8.7 c0 -0.84 -0.68 -1.52 -1.52 -1.52 l-4.52 0 z M154 20 c-0.64 0 -1.16 -0.52 -1.16 -1.16 l0 -12.7 c0 -0.64 0.52 -1.16 1.16 -1.16 l6.42 0 c1.88 0 3.4 1.52 3.4 3.4 l0 8.22 c0 1.86 -1.52 3.4 -3.4 3.4 l-6.42 0 z M155.1 18.28 l5.32 0 c0.84 0 1.52 -0.68 1.52 -1.52 l0 -8.54 c0 -0.84 -0.68 -1.52 -1.52 -1.52 l-5.32 0 c-0.22 0 -0.38 0.16 -0.38 0.38 l0 10.82 c0 0.2 0.16 0.38 0.38 0.38 z M174.1 20.08 l-4.52 0 c-1.88 0 -3.4 -1.52 -3.4 -3.4 l0 -8.38 c0 -1.88 1.52 -3.4 3.4 -3.4 l4.52 0 c1.86 0 3.4 1.52 3.4 3.4 l0 8.38 c0 1.88 -1.54 3.4 -3.4 3.4 z M169.58 6.619999999999999 c-0.84 0 -1.52 0.68 -1.52 1.52 l0 8.7 c0 0.84 0.68 1.52 1.52 1.52 l4.52 0 c0.84 0 1.52 -0.68 1.52 -1.52 l0 -8.7 c0 -0.84 -0.68 -1.52 -1.52 -1.52 l-4.52 0 z"/></g>
			</g>
		</svg>
	